<svg width="60" height="26" viewBox="0 0 60 26" fill="none" xmlns="http://www.w3.org/2000/svg">
<path d="M7.87325 25.288C6.42258 25.288 5.12125 25.032 3.96925 24.52C2.81725 23.9867 1.89992 23.272 1.21725 22.376C0.555917 21.48 0.19325 20.488 0.12925 19.4H4.64125C4.72658 20.0827 5.05725 20.648 5.63325 21.096C6.23058 21.544 6.96658 21.768 7.84125 21.768C8.69458 21.768 9.35592 21.5973 9.82525 21.256C10.3159 20.9147 10.5613 20.4773 10.5613 19.944C10.5613 19.368 10.2626 18.9413 9.66525 18.664C9.08925 18.3653 8.16125 18.0453 6.88125 17.704C5.55858 17.384 4.47058 17.0533 3.61725 16.712C2.78525 16.3707 2.05992 15.848 1.44125 15.144C0.843917 14.44 0.54525 13.4907 0.54525 12.296C0.54525 11.3147 0.822584 10.4187 1.37725 9.608C1.95325 8.79733 2.76392 8.15733 3.80925 7.688C4.87592 7.21867 6.12392 6.984 7.55325 6.984C9.66525 6.984 11.3506 7.51733 12.6093 8.584C13.8679 9.62933 14.5613 11.048 14.6893 12.84H10.4013C10.3373 12.136 10.0386 11.5813 9.50525 11.176C8.99325 10.7493 8.29992 10.536 7.42525 10.536C6.61458 10.536 5.98525 10.6853 5.53725 10.984C5.11058 11.2827 4.89725 11.6987 4.89725 12.232C4.89725 12.8293 5.19592 13.288 5.79325 13.608C6.39058 13.9067 7.31858 14.216 8.57725 14.536C9.85725 14.856 10.9133 15.1867 11.7453 15.528C12.5773 15.8693 13.2919 16.4027 13.8893 17.128C14.5079 17.832 14.8279 18.7707 14.8493 19.944C14.8493 20.968 14.5613 21.8853 13.9853 22.696C13.4306 23.5067 12.6199 24.1467 11.5533 24.616C10.5079 25.064 9.28125 25.288 7.87325 25.288ZM34.2068 15.752C34.2068 16.392 34.1641 16.968 34.0788 17.48H21.1188C21.2254 18.76 21.6734 19.7627 22.4628 20.488C23.2521 21.2133 24.2228 21.576 25.3748 21.576C27.0388 21.576 28.2228 20.8613 28.9268 19.432H33.7588C33.2468 21.1387 32.2654 22.5467 30.8148 23.656C29.3641 24.744 27.5828 25.288 25.4708 25.288C23.7641 25.288 22.2281 24.9147 20.8628 24.168C19.5188 23.4 18.4628 22.3227 17.6948 20.936C16.9481 19.5493 16.5748 17.9493 16.5748 16.136C16.5748 14.3013 16.9481 12.6907 17.6948 11.304C18.4414 9.91733 19.4868 8.85067 20.8308 8.104C22.1748 7.35733 23.7214 6.984 25.4708 6.984C27.1561 6.984 28.6601 7.34667 29.9828 8.072C31.3268 8.79733 32.3614 9.832 33.0868 11.176C33.8334 12.4987 34.2068 14.024 34.2068 15.752ZM29.5668 14.472C29.5454 13.32 29.1294 12.4027 28.3188 11.72C27.5081 11.016 26.5161 10.664 25.3428 10.664C24.2334 10.664 23.2948 11.0053 22.5268 11.688C21.7801 12.3493 21.3214 13.2773 21.1508 14.472H29.5668ZM41.1568 1.32V25H36.6768V1.32H41.1568ZM52.911 10.952H49.807V25H45.263V10.952H43.247V7.272H45.263V6.376C45.263 4.2 45.8817 2.6 47.119 1.576C48.3563 0.551999 50.223 0.0719992 52.719 0.136V3.912C51.631 3.89067 50.8737 4.072 50.447 4.456C50.0203 4.84 49.807 5.53333 49.807 6.536V7.272H52.911V10.952ZM56.9983 25.224C56.1876 25.224 55.5156 24.9787 54.9823 24.488C54.4703 23.976 54.2143 23.3467 54.2143 22.6C54.2143 21.8533 54.4703 21.2347 54.9823 20.744C55.5156 20.232 56.1876 19.976 56.9983 19.976C57.7876 19.976 58.4383 20.232 58.9503 20.744C59.4623 21.2347 59.7183 21.8533 59.7183 22.6C59.7183 23.3467 59.4623 23.976 58.9503 24.488C58.4383 24.9787 57.7876 25.224 56.9983 25.224Z" fill="#1F1F1F"/>
</svg>
